<?xml version="1.0" encoding="UTF-8" standalone="no"?>
<!-- Created with Inkscape (http://www.inkscape.org/) -->

<svg
   width="128"
   height="128"
   viewBox="0 0 128 128"
   version="1.1"
   id="svg8"
   xml:space="preserve"
   xmlns="http://www.w3.org/2000/svg"
   xmlns:svg="http://www.w3.org/2000/svg"
   xmlns:rdf="http://www.w3.org/1999/02/22-rdf-syntax-ns#"
   xmlns:cc="http://creativecommons.org/ns#"
   xmlns:dc="http://purl.org/dc/elements/1.1/"><defs
     id="defs2"><rect
       x="40"
       y="20"
       width="50"
       height="20"
       id="rect1489" /><rect
       x="40"
       y="30"
       width="62.702148"
       height="34.558003"
       id="rect1471" /><rect
       x="36.045221"
       y="79.460479"
       width="62.954779"
       height="40.539521"
       id="rect971" /><rect
       x="40"
       y="30"
       width="50"
       height="20"
       id="rect1479" /><rect
       x="40"
       y="30"
       width="62.702148"
       height="34.558003"
       id="rect1501" /></defs><metadata
     id="metadata5"><rdf:RDF><cc:Work
         rdf:about=""><dc:format>image/svg+xml</dc:format><dc:type
           rdf:resource="http://purl.org/dc/dcmitype/StillImage" /><cc:license
           rdf:resource="http://creativecommons.org/licenses/by/4.0/" /></cc:Work><cc:License
         rdf:about="http://creativecommons.org/licenses/by/4.0/"><cc:permits
           rdf:resource="http://creativecommons.org/ns#Reproduction" /><cc:permits
           rdf:resource="http://creativecommons.org/ns#Distribution" /><cc:requires
           rdf:resource="http://creativecommons.org/ns#Notice" /><cc:requires
           rdf:resource="http://creativecommons.org/ns#Attribution" /><cc:permits
           rdf:resource="http://creativecommons.org/ns#DerivativeWorks" /></cc:License></rdf:RDF></metadata><g
     id="layer1"
     style="display:inline"><rect
       style="display:none;fill:#ff6600;fill-opacity:1;stroke-width:1.00157;stroke-linejoin:round;stop-color:#000000"
       id="rect812"
       width="100"
       height="114"
       x="14"
       y="7"
       rx="3.3333335"
       ry="3.8000004" /><path
       id="path1346"
       style="display:inline;fill:#ffb280;fill-opacity:1;stroke-width:1.00157;stroke-linejoin:round;stop-color:#000000"
       d="M 16.333984,6.0000005 C 14.487319,6.0000005 13,7.6955835 13,9.800781 V 40.503906 C 21.563069,34.974415 31.79684,31.951991 42.681641,32.582031 68.250188,34.062003 89.305873,56.125806 87.648438,82.164062 86.906187,93.824774 81.485485,104.45285 73.275391,111.95508 69.571534,115.33959 65.296343,118.07992 60.630859,120 H 109.66602 C 111.51268,120 113,118.30442 113,116.19922 V 9.800781 c 0,-2.1051975 -1.48732,-3.8007805 -3.33398,-3.8007805 z M 40.007812,40.501953 C 29.853057,40.464683 20.430457,44.234382 13,50.441406 V 62.402344 C 19.902628,53.535361 30.807403,47.986342 42.810547,49.078125 59.370413,50.584379 72.96673,65.229625 71.152344,82.332031 69.634754,96.63682 56.819939,108.37878 41.943359,106.48438 29.900682,104.95085 20.000399,93.944938 22.015625,81.28125 23.571976,71.501136 32.815154,63.412367 43.277344,65.632812 c 3.757915,0.797562 7.049037,2.976605 9.261718,6.050782 2.212682,3.074177 3.278981,7.298154 1.960938,11.439453 -0.84664,2.660148 -2.585764,4.837698 -5.039062,6.283203 -2.453299,1.445506 -6.168133,1.905037 -9.160157,0 -2.275038,-1.448527 -2.820612,-2.90565 -3.183593,-5.0625 -0.181491,-1.078425 -0.236237,-2.546117 0.761718,-4.080078 0.997955,-1.53396 3.051897,-2.355469 4.570313,-2.355469 a 3.9997329,4.0002636 0 0 1 3.890625,3.449219 c 0.175356,-0.253569 0.477287,-0.465943 0.539062,-0.660156 0.499803,-1.570386 0.169101,-2.948925 -0.832031,-4.339844 -1.001133,-1.390918 -2.740045,-2.540251 -4.427734,-2.898438 -5.521094,-1.17177 -10.811607,3.477769 -11.703125,9.080078 -1.2474,7.838664 5.211703,15.013268 13.037109,16.009768 C 53.0785,99.83821 62.128624,91.542888 63.195312,81.488281 64.510832,69.088195 54.37075,58.162324 42.085938,57.044922 27.422796,55.711191 14.626104,67.705514 13.470703,82.226562 12.124035,99.15147 25.974994,113.82635 42.730469,115.01172 61.909234,116.36853 78.454901,100.65016 79.664062,81.654297 81.028505,60.21895 63.45112,41.797343 42.21875,40.568359 c -0.740142,-0.04284 -1.477894,-0.06372 -2.210938,-0.06641 z m 3.603516,44.927735 a 3.9997329,4.0002636 0 0 1 -1.162109,0.482421 c 0.163789,0 0.65284,-0.189074 1.162109,-0.482421 z M 13,107.04102 v 9.1582 C 13,118.30442 14.487319,120 16.333984,120 h 13.34375 C 23.038542,117.21865 17.2554,112.70534 13,107.04102 Z" /><path
       id="path1347"
       style="display:inline;fill:#804620;fill-opacity:1;stroke-width:1.00157;stroke-linejoin:round;stop-color:#000000"
       d="M 17.363229,7.0000002 C 15.500365,7.0000002 14,8.7104565 14,10.834121 v 30.97245 C 22.638183,36.228575 32.961724,33.179639 43.942005,33.815206 69.734837,35.30816 90.97522,57.565504 89.303246,83.832165 88.554484,95.595164 83.086232,106.31647 74.80412,113.88451 71.067773,117.29871 66.755081,120.06307 62.048672,122 h 49.465288 c 1.86286,0 3.36323,-1.71046 3.36323,-3.83412 V 10.834121 c 0,-2.1236645 -1.50037,-3.8341208 -3.36323,-3.8341208 z M 41.244721,41.8046 C 31.00089,41.767003 21.495636,45.56977 14,51.831241 V 63.897099 C 20.963177,54.952336 31.963607,49.354642 44.072042,50.456002 60.777169,51.975468 74.492752,66.749181 72.66245,84.001608 71.131548,98.43188 58.204323,110.27684 43.197247,108.36582 31.048933,106.81884 21.061805,95.716382 23.094709,82.941609 24.664712,73.075705 33.98897,64.915982 44.542933,67.155905 c 3.790879,0.804558 7.110871,3.002715 9.342961,6.103859 2.232092,3.101143 3.307744,7.362172 1.978139,11.539798 -0.854066,2.683483 -2.608446,4.880134 -5.083264,6.338319 -2.474819,1.458186 -6.222239,1.921748 -9.240509,0 -2.294994,-1.461233 -2.845354,-2.931138 -3.211519,-5.106908 -0.183083,-1.087885 -0.238309,-2.568451 0.7684,-4.115868 1.006709,-1.547416 3.078668,-2.376131 4.610403,-2.376131 a 4.0348182,4.0353535 0 0 1 3.924753,3.479475 c 0.176895,-0.255793 0.481474,-0.47003 0.543791,-0.665946 0.504187,-1.584162 0.170584,-2.974793 -0.83933,-4.377913 -1.009914,-1.403119 -2.76408,-2.562534 -4.466573,-2.923863 -5.569525,-1.182048 -10.906446,3.508276 -11.805784,9.159728 -1.258342,7.907424 5.25742,15.144965 13.151469,16.150205 10.214194,1.30069 19.343705,-7.067399 20.41975,-17.210204 C 65.962679,70.641598 55.73365,59.619886 43.341077,58.492683 28.549311,57.147252 15.640368,69.246788 14.474832,83.895213 13.116351,100.96859 27.088809,115.77219 43.991261,116.96796 63.33826,118.33667 80.029064,102.48042 81.248832,83.317929 82.625244,61.694553 64.893672,43.111353 43.475054,41.871589 42.728419,41.828369 41.984196,41.807309 41.244721,41.8046 Z m 3.635126,45.321837 a 4.0348182,4.0353535 0 0 1 -1.172303,0.486653 c 0.165226,0 0.658567,-0.190733 1.172303,-0.486653 z M 14,108.92734 v 9.23854 C 14,120.28954 15.500365,122 17.363229,122 h 13.4608 C 24.126599,119.19425 18.292728,114.64135 14,108.92734 Z" /><path
       id="rect1269"
       style="fill:#ff6600;fill-opacity:1;stroke-width:1.00157;stroke-linejoin:round;stop-color:#000000"
       d="M 17.333984,7.0000005 C 15.487319,7.0000005 14,8.6955835 14,10.800781 V 41.503906 C 22.563069,35.974415 32.79684,32.951991 43.681641,33.582031 69.250188,35.062003 90.305873,57.125806 88.648438,83.164062 87.906187,94.824774 82.485485,105.45285 74.275391,112.95508 70.571534,116.33959 66.296343,119.07992 61.630859,121 H 110.66602 C 112.51268,121 114,119.30442 114,117.19922 V 10.800781 c 0,-2.1051975 -1.48732,-3.8007805 -3.33398,-3.8007805 z M 41.007812,41.501953 C 30.853057,41.464683 21.430457,45.234382 14,51.441406 V 63.402344 C 20.902628,54.535361 31.807403,48.986342 43.810547,50.078125 60.370413,51.584379 73.96673,66.229625 72.152344,83.332031 70.634754,97.63682 57.819939,109.37878 42.943359,107.48438 30.900682,105.95085 21.000399,94.944938 23.015625,82.28125 24.571976,72.501136 33.815154,64.412367 44.277344,66.632812 c 3.757915,0.797562 7.049037,2.976605 9.261718,6.050782 2.212682,3.074177 3.278981,7.298154 1.960938,11.439453 -0.84664,2.660148 -2.585764,4.837698 -5.039062,6.283203 -2.453299,1.445506 -6.168133,1.905037 -9.160157,0 -2.275038,-1.448527 -2.820612,-2.90565 -3.183593,-5.0625 -0.181491,-1.078425 -0.236237,-2.546117 0.761718,-4.080078 0.997955,-1.53396 3.051897,-2.355469 4.570313,-2.355469 a 3.9997329,4.0002636 0 0 1 3.890625,3.449219 c 0.175356,-0.253569 0.477287,-0.465943 0.539062,-0.660156 0.499803,-1.570386 0.169101,-2.948925 -0.832031,-4.339844 -1.001133,-1.390918 -2.740045,-2.540251 -4.427734,-2.898438 -5.521094,-1.17177 -10.811607,3.477769 -11.703125,9.080078 -1.2474,7.838664 5.211703,15.013268 13.037109,16.009768 C 54.0785,100.83821 63.128624,92.542888 64.195312,82.488281 65.510832,70.088195 55.37075,59.162324 43.085938,58.044922 28.422796,56.711191 15.626104,68.705514 14.470703,83.226562 13.124035,100.15147 26.974994,114.82635 43.730469,116.01172 62.909234,117.36853 79.454901,101.65016 80.664062,82.654297 82.028505,61.21895 64.45112,42.797343 43.21875,41.568359 c -0.740142,-0.04284 -1.477894,-0.06372 -2.210938,-0.06641 z m 3.603516,44.927735 a 3.9997329,4.0002636 0 0 1 -1.162109,0.482421 c 0.163789,0 0.65284,-0.189074 1.162109,-0.482421 z M 14,108.04102 v 9.1582 C 14,119.30442 15.487319,121 17.333984,121 h 13.34375 C 24.038542,118.21865 18.2554,113.70534 14,108.04102 Z" /><path
       style="display:none;fill:none;fill-rule:evenodd;stroke:#ffffff;stroke-width:9.15118;stroke-linecap:round;stroke-linejoin:miter;stroke-dasharray:none;stroke-opacity:1;paint-order:normal"
       id="path1062"
       d="m 40,60 c -2.005536,2.005537 -3.692884,-1.713961 -3.333334,-3.333332 0.974358,-4.388397 6.595346,-5.093861 9.999998,-3.333337 6.090125,3.149164 6.803585,11.326868 3.333339,16.666666 -5.092724,7.836368 -16.122576,8.563982 -23.333332,3.333341 C 17.055868,66.361716 16.320699,52.392267 23.333328,43.333339 32.158005,31.933602 49.103752,31.194209 59.999993,39.999993 73.196801,50.664978 73.938749,70.605888 63.333341,83.333325 50.835235,98.33217 27.888163,99.075767 13.333343,86.666676 -3.4707737,72.339889 -4.215494,46.379668 9.9999897,30.00001 26.152526,11.388402 55.130614,10.642885 73.333322,26.666655 93.754009,44.642904 94.500112,76.642201 76.666679,96.666654 56.868188,118.89759 21.845231,119.64414 1.3759372e-5,100.00001"
       transform="matrix(0.61811443,-0.61819644,-0.61811443,-0.61819644,55.811176,144.72953)" /><path
       id="rect1445"
       style="display:inline;fill:#f2f2f2;fill-opacity:0.25;stroke-width:8;stroke-linecap:round;stop-color:#000000"
       d="M 28,11 H 99 V 117 H 28 Z" /><path
       id="rect1350"
       style="fill:#808080;fill-opacity:0.5;stroke-width:8;stroke-linecap:round;stop-color:#000000"
       d="m 29,12 h 71 V 118 H 29 Z" /><path
       id="rect1178"
       style="fill:#e5e5e5;fill-opacity:0.75;stroke-width:8;stroke-linecap:round;stop-color:#000000"
       d="M 29,12 H 99 V 117 H 29 Z" /><path
       id="rect1380"
       style="display:inline;fill:#999999;stroke-width:8.00003;stroke-linecap:round;stop-color:#000000"
       d="m 49.15,4 h 28.7 C 81.2571,4 84,6.899 84,10.5 84,14.101 81.2571,17 77.85,17 H 49.15 C 45.7429,17 43,14.101 43,10.5 43,6.899 45.7429,4 49.15,4 Z" /><path
       id="rect1309"
       style="display:inline;fill:#191919;stroke-width:8.00003;stroke-linecap:round;stop-color:#000000"
       d="m 50.15,5 h 28.7 C 82.2571,5 85,7.899 85,11.5 85,15.101 82.2571,18 78.85,18 H 50.15 C 46.7429,18 44,15.101 44,11.5 44,7.899 46.7429,5 50.15,5 Z" /><path
       id="rect1441"
       style="display:inline;fill:#333333;stroke-width:8.00003;stroke-linecap:round;stop-color:#000000"
       d="m 50,5.0000005 h 28 c 3.324,0 6,2.676 6,5.9999995 0,3.324 -2.676,6 -6,6 H 50 c -3.324,0 -6,-2.676 -6,-6 0,-3.3239995 2.676,-5.9999995 6,-5.9999995 z" /><g
       aria-label="HOU"
       transform="translate(-7.4048904,13.376027)"
       id="text1469"
       style="font-weight:900;font-size:21.3333px;line-height:1.25;font-family:'Fira Sans';-inkscape-font-specification:'Fira Sans Heavy';letter-spacing:0px;word-spacing:0px;white-space:pre;shape-inside:url(#rect1471);display:inline;fill:#333333"><path
         d="M 61.036918,49.41064 H 57.81559 V 42.839984 H 51.778266 V 49.41064 H 48.556938 V 34.178664 h 3.221328 v 5.973324 h 6.037324 v -5.973324 h 3.221328 z"
         style="font-weight:bold;font-family:'Noto Sans';-inkscape-font-specification:'Noto Sans Bold';text-align:center;text-anchor:middle"
         id="path671" /><path
         d="m 78.700878,41.773319 q 0,2.367996 -0.789333,4.13866 -0.767998,1.74933 -2.367996,2.730662 -1.599997,0.981332 -4.095993,0.981332 -2.474663,0 -4.095994,-0.981332 -1.599997,-0.981332 -2.389329,-2.751996 -0.767999,-1.770663 -0.767999,-4.13866 0,-2.367996 0.767999,-4.117326 0.789332,-1.749331 2.389329,-2.70933 1.621331,-0.981331 4.117327,-0.981331 2.474663,0 4.07466,0.981331 1.599998,0.959999 2.367996,2.730663 0.789333,1.74933 0.789333,4.117327 z m -11.11465,0 q 0,2.389329 0.917332,3.775994 0.917332,1.365331 2.943996,1.365331 2.06933,0 2.965328,-1.365331 0.895999,-1.386665 0.895999,-3.775994 0,-2.410663 -0.895999,-3.775994 -0.895998,-1.365332 -2.943995,-1.365332 -2.047997,0 -2.965329,1.365332 -0.917332,1.365331 -0.917332,3.775994 z"
         style="font-weight:bold;font-family:'Noto Sans';-inkscape-font-specification:'Noto Sans Bold';text-align:center;text-anchor:middle"
         id="path673" /><path
         d="m 94.252843,44.034648 q 0,1.578665 -0.703999,2.858663 -0.682665,1.258664 -2.090663,2.00533 -1.386665,0.725332 -3.519995,0.725332 -3.029328,0 -4.607992,-1.535998 -1.578665,-1.557331 -1.578665,-4.095993 v -9.813318 h 3.221329 v 9.322652 q 0,1.87733 0.767998,2.645329 0.767999,0.767999 2.282664,0.767999 1.578664,0 2.282663,-0.831999 0.725332,-0.831999 0.725332,-2.602662 v -9.301319 h 3.221328 z"
         style="font-weight:bold;font-family:'Noto Sans';-inkscape-font-specification:'Noto Sans Bold';text-align:center;text-anchor:middle"
         id="path675" /></g><text
       xml:space="preserve"
       id="text1487"
       style="font-weight:900;font-size:21.3333px;line-height:1.25;font-family:'Fira Sans';-inkscape-font-specification:'Fira Sans Heavy';letter-spacing:0px;word-spacing:0px;white-space:pre;shape-inside:url(#rect1489);display:inline"
       transform="translate(0,-2.9999995)" /><g
       aria-label="CLIP"
       transform="translate(-7.4048904,31.376027)"
       id="text1499"
       style="font-weight:900;font-size:21.3333px;line-height:1.25;font-family:'Fira Sans';-inkscape-font-specification:'Fira Sans Heavy';letter-spacing:0px;word-spacing:0px;white-space:pre;shape-inside:url(#rect1501);display:inline;fill:#333333"><path
         d="m 56.066255,36.653327 q -1.855997,0 -2.837329,1.386664 -0.981332,1.386665 -0.981332,3.797328 0,2.431996 0.895999,3.775994 0.917332,1.322664 2.922662,1.322664 0.938665,0 1.855997,-0.213333 0.938665,-0.213333 2.026663,-0.597332 v 2.709329 q -1.002665,0.405333 -1.983997,0.597332 -0.981331,0.192 -2.197329,0.192 -2.346663,0 -3.882661,-0.959999 -1.514664,-0.981331 -2.239996,-2.730662 -0.725333,-1.770664 -0.725333,-4.117327 0,-2.303996 0.831999,-4.07466 0.831999,-1.770664 2.410663,-2.773329 1.599997,-1.002665 3.903994,-1.002665 1.130665,0 2.26133,0.298666 1.151998,0.277333 2.197329,0.767999 l -1.045331,2.623996 q -0.853332,-0.405333 -1.727998,-0.703999 -0.853332,-0.298666 -1.68533,-0.298666 z"
         style="font-weight:bold;font-family:'Noto Sans';-inkscape-font-specification:'Noto Sans Bold';text-align:center;text-anchor:middle"
         id="path678" /><path
         d="M 63.191558,49.41064 V 34.178664 h 3.221329 v 12.565313 h 6.186657 v 2.666663 z"
         style="font-weight:bold;font-family:'Noto Sans';-inkscape-font-specification:'Noto Sans Bold';text-align:center;text-anchor:middle"
         id="path680" /><path
         d="m 80.940876,49.41064 h -6.933322 v -1.834664 l 1.855997,-0.853332 V 36.86666 l -1.855997,-0.853332 v -1.834664 h 6.933322 v 1.834664 l -1.855997,0.853332 v 9.855984 l 1.855997,0.853332 z"
         style="font-weight:bold;font-family:'Noto Sans';-inkscape-font-specification:'Noto Sans Bold';text-align:center;text-anchor:middle"
         id="path682" /><path
         d="m 88.40753,34.178664 q 2.943995,0 4.287993,1.279998 1.365331,1.258665 1.365331,3.477328 0,1.322664 -0.554665,2.495996 -0.554666,1.151998 -1.855997,1.855997 -1.279998,0.703999 -3.498662,0.703999 H 86.764866 V 49.41064 H 83.543538 V 34.178664 Z m -0.170666,2.645329 h -1.471998 v 4.52266 h 1.066665 q 1.365331,0 2.154663,-0.533333 0.810666,-0.554666 0.810666,-1.770664 0,-2.218663 -2.559996,-2.218663 z"
         style="font-weight:bold;font-family:'Noto Sans';-inkscape-font-specification:'Noto Sans Bold';text-align:center;text-anchor:middle"
         id="path684" /></g></g></svg>
